<svg width="40" height="40" viewBox="0 0 40 40" fill="none" xmlns="http://www.w3.org/2000/svg">
<path d="M32 28C32 30.206 30.206 32 28 32C25.794 32 24 30.206 24 28C24 25.794 25.794 24 28 24C30.206 24 32 25.794 32 28ZM40 21V35C40 37.761 37.762 40 35 40H21C18.239 40 16 37.761 16 35V21C16 18.239 18.239 16 21 16H35C37.762 16 40 18.239 40 21ZM34 28C34 24.687 31.313 22 28 22C24.687 22 22 24.687 22 28C22 31.313 24.687 34 28 34C31.313 34 34 31.313 34 28ZM37 20C37 19.448 36.552 19 36 19C35.448 19 35 19.448 35 20C35 20.552 35.448 21 36 21C36.552 21 37 20.552 37 20Z" fill="white"/>
<path d="M21 12.8333H15.1667V7H12.8333V12.8333H7V15.1667H12.8333V21H15.1667V15.1667H21V12.8333Z" fill="white"/>
</svg>
